<mxfile host="app.diagrams.net" agent="Mozilla/5.0 (Windows NT 10.0; Win64; x64) AppleWebKit/537.36 (KHTML, like Gecko) Chrome/133.0.0.0 Safari/537.36" version="26.0.15">
  <diagram name="Halaman-1" id="5yqaW2asKxM69vM94oPC">
    <mxGraphModel dx="2327" dy="796" grid="1" gridSize="10" guides="1" tooltips="1" connect="1" arrows="1" fold="1" page="1" pageScale="1" pageWidth="827" pageHeight="1169" math="0" shadow="0">
      <root>
        <mxCell id="0" />
        <mxCell id="1" parent="0" />
        <mxCell id="on_uT8E0f6uDA9FY-ZUg-2" style="edgeStyle=orthogonalEdgeStyle;rounded=0;orthogonalLoop=1;jettySize=auto;html=1;" edge="1" parent="1" source="on_uT8E0f6uDA9FY-ZUg-1">
          <mxGeometry relative="1" as="geometry">
            <mxPoint x="80" y="160" as="targetPoint" />
          </mxGeometry>
        </mxCell>
        <mxCell id="on_uT8E0f6uDA9FY-ZUg-1" value="START" style="strokeWidth=2;html=1;shape=mxgraph.flowchart.terminator;whiteSpace=wrap;" vertex="1" parent="1">
          <mxGeometry x="30" y="50" width="100" height="60" as="geometry" />
        </mxCell>
        <mxCell id="on_uT8E0f6uDA9FY-ZUg-4" style="edgeStyle=orthogonalEdgeStyle;rounded=0;orthogonalLoop=1;jettySize=auto;html=1;" edge="1" parent="1" source="on_uT8E0f6uDA9FY-ZUg-3">
          <mxGeometry relative="1" as="geometry">
            <mxPoint x="80" y="300" as="targetPoint" />
          </mxGeometry>
        </mxCell>
        <mxCell id="on_uT8E0f6uDA9FY-ZUg-3" value="a = 0&lt;div&gt;b = 1&lt;/div&gt;" style="shape=hexagon;perimeter=hexagonPerimeter2;whiteSpace=wrap;html=1;fixedSize=1;" vertex="1" parent="1">
          <mxGeometry x="20" y="160" width="120" height="80" as="geometry" />
        </mxCell>
        <mxCell id="on_uT8E0f6uDA9FY-ZUg-8" style="edgeStyle=orthogonalEdgeStyle;rounded=0;orthogonalLoop=1;jettySize=auto;html=1;entryX=0;entryY=0.5;entryDx=0;entryDy=0;" edge="1" parent="1" source="on_uT8E0f6uDA9FY-ZUg-5" target="on_uT8E0f6uDA9FY-ZUg-12">
          <mxGeometry relative="1" as="geometry">
            <mxPoint x="240" y="495" as="targetPoint" />
          </mxGeometry>
        </mxCell>
        <mxCell id="on_uT8E0f6uDA9FY-ZUg-11" value="YES" style="edgeLabel;html=1;align=center;verticalAlign=middle;resizable=0;points=[];" vertex="1" connectable="0" parent="on_uT8E0f6uDA9FY-ZUg-8">
          <mxGeometry x="-0.0413" y="2" relative="1" as="geometry">
            <mxPoint as="offset" />
          </mxGeometry>
        </mxCell>
        <mxCell id="on_uT8E0f6uDA9FY-ZUg-9" style="edgeStyle=orthogonalEdgeStyle;rounded=0;orthogonalLoop=1;jettySize=auto;html=1;" edge="1" parent="1" source="on_uT8E0f6uDA9FY-ZUg-5">
          <mxGeometry relative="1" as="geometry">
            <mxPoint x="80" y="620" as="targetPoint" />
          </mxGeometry>
        </mxCell>
        <mxCell id="on_uT8E0f6uDA9FY-ZUg-17" value="NO" style="edgeLabel;html=1;align=center;verticalAlign=middle;resizable=0;points=[];" vertex="1" connectable="0" parent="on_uT8E0f6uDA9FY-ZUg-9">
          <mxGeometry x="-0.2265" relative="1" as="geometry">
            <mxPoint as="offset" />
          </mxGeometry>
        </mxCell>
        <mxCell id="on_uT8E0f6uDA9FY-ZUg-5" value="a &amp;lt;= n" style="rhombus;whiteSpace=wrap;html=1;" vertex="1" parent="1">
          <mxGeometry x="-5" y="430" width="170" height="130" as="geometry" />
        </mxCell>
        <mxCell id="on_uT8E0f6uDA9FY-ZUg-10" style="edgeStyle=orthogonalEdgeStyle;rounded=0;orthogonalLoop=1;jettySize=auto;html=1;entryX=0.5;entryY=0;entryDx=0;entryDy=0;" edge="1" parent="1" source="on_uT8E0f6uDA9FY-ZUg-7" target="on_uT8E0f6uDA9FY-ZUg-5">
          <mxGeometry relative="1" as="geometry" />
        </mxCell>
        <mxCell id="on_uT8E0f6uDA9FY-ZUg-7" value="INPUT n" style="shape=parallelogram;perimeter=parallelogramPerimeter;whiteSpace=wrap;html=1;fixedSize=1;" vertex="1" parent="1">
          <mxGeometry x="10" y="300" width="140" height="70" as="geometry" />
        </mxCell>
        <mxCell id="on_uT8E0f6uDA9FY-ZUg-16" value="" style="edgeStyle=orthogonalEdgeStyle;rounded=0;orthogonalLoop=1;jettySize=auto;html=1;" edge="1" parent="1" source="on_uT8E0f6uDA9FY-ZUg-12" target="on_uT8E0f6uDA9FY-ZUg-14">
          <mxGeometry relative="1" as="geometry" />
        </mxCell>
        <mxCell id="on_uT8E0f6uDA9FY-ZUg-12" value="a + 1" style="rounded=0;whiteSpace=wrap;html=1;" vertex="1" parent="1">
          <mxGeometry x="260" y="465" width="120" height="60" as="geometry" />
        </mxCell>
        <mxCell id="on_uT8E0f6uDA9FY-ZUg-15" style="edgeStyle=orthogonalEdgeStyle;rounded=0;orthogonalLoop=1;jettySize=auto;html=1;" edge="1" parent="1" source="on_uT8E0f6uDA9FY-ZUg-14">
          <mxGeometry relative="1" as="geometry">
            <mxPoint x="90" y="390" as="targetPoint" />
          </mxGeometry>
        </mxCell>
        <mxCell id="on_uT8E0f6uDA9FY-ZUg-14" value="b * a" style="rounded=0;whiteSpace=wrap;html=1;" vertex="1" parent="1">
          <mxGeometry x="260" y="360" width="120" height="60" as="geometry" />
        </mxCell>
        <mxCell id="on_uT8E0f6uDA9FY-ZUg-18" value="PRINT b" style="strokeWidth=2;html=1;shape=mxgraph.flowchart.terminator;whiteSpace=wrap;" vertex="1" parent="1">
          <mxGeometry x="30" y="630" width="100" height="60" as="geometry" />
        </mxCell>
      </root>
    </mxGraphModel>
  </diagram>
</mxfile>
